<svg width="144" height="35" viewBox="0 0 144 35" xmlns="http://www.w3.org/2000/svg"><g fill="none" fill-rule="evenodd"><path d="M0 0h144v35H0z"/><path d="M33 17.01a15.154 15.154 0 0 0-.306-2.622c-.677-3.216-2.184-5.983-4.607-8.2-3.826-3.504-8.34-4.81-13.442-3.915-3.52.618-6.461 2.348-8.815 5.038-2.25 2.572-3.498 5.58-3.779 8.985-.12 1.46-.027 2.911.275 4.346.708 3.36 2.34 6.19 4.907 8.463 2.787 2.466 6.062 3.747 9.78 3.895h.975a14.799 14.799 0 0 0 2.427-.266c3.793-.759 6.906-2.647 9.298-5.686 2.088-2.653 3.161-5.69 3.287-9.063v-.976zm-17.083 3.542l-1.762 1.85c-.434.454-.949.729-1.592.687-.483-.03-.912-.225-1.317-.479-.608-.38-1.143-.854-1.656-1.349a755.709 755.709 0 0 1-4.7-4.586c-1.059-1.04-1.13-2.405-.217-3.575a2.843 2.843 0 0 1 2.197-1.133c.707.01 1.252.21 1.71.645 1.022.97 2.05 1.934 3.075 2.901.1.095.209.18.329.249.37.21.648.177.965-.107 1.072-.96 2.105-1.962 3.157-2.945.429-.4.894-.722 1.486-.814 1.144-.178 2.05.22 2.704 1.164.702 1.01.57 2.199-.313 3.166-1.334 1.462-2.701 2.893-4.066 4.326zm13.608-4.266a11.465 11.465 0 0 1-1.344 1.705c-1.477 1.575-2.89 3.206-4.306 4.834-.665.764-1.735 1.04-2.769.682-.953-.33-1.634-.954-1.975-1.916-.397-1.121-.388-2.238.08-3.34.082-.195.181-.383.355-.566v.224a.714.714 0 0 0 .458.687c.303.124.6.07.819-.173.356-.396.698-.806 1.053-1.204.886-.994 1.782-1.978 2.658-2.98.332-.378.654-.76 1.03-1.1.95-.862 2.301-.628 3.123-.1.745.48 1.157 1.185 1.183 2.082.013.422-.14.809-.365 1.165z" fill="#FF4E4E" fill-rule="nonzero"/><path d="M54.98 24.382L50.83 8.39l.016-.062h-1.788l.016.062-4.15 15.992-4.168-16.054H39l5.01 19.302h1.826l4.116-15.856 4.116 15.856h1.826l5.01-19.302h-1.756L54.98 24.382zM73.044 8.33H65.66v19.344h1.751v-7.032h5.983c.014 0 .041 0 .164-.005 1.596-.044 2.914-.745 3.831-1.86.94-1.143 1.473-2.785 1.45-4.405-.023-1.664-.634-3.31-1.756-4.386-1.126-1.085-2.658-1.656-4.04-1.656zm3.014 9.398a3.345 3.345 0 0 1-2.544 1.24H67.41v-8.96h5.627c.972 0 2.048.406 2.846 1.17.803.767 1.245 2.012 1.25 3.266.004 1.227-.406 2.467-1.077 3.284zm21.785 6.158a8.58 8.58 0 0 1-6.015 2.436 8.57 8.57 0 0 1-6.015-2.436A8.214 8.214 0 0 1 83.322 18c0-2.298.948-4.378 2.49-5.886a8.58 8.58 0 0 1 6.015-2.436c2.235 0 4.273.843 5.792 2.226l1.409-1A10.307 10.307 0 0 0 91.827 8h-.005a10.298 10.298 0 0 0-7.228 2.927c-1.847 1.812-2.991 4.31-2.991 7.073 0 2.762 1.14 5.261 2.991 7.073A10.317 10.317 0 0 0 91.822 28a10.298 10.298 0 0 0 7.616-3.329l-1.313-1.075a8.468 8.468 0 0 1-.283.29zM110.17 8a10.298 10.298 0 0 0-7.228 2.927c-1.847 1.812-2.992 4.31-2.992 7.073 0 2.762 1.14 5.261 2.992 7.073A10.317 10.317 0 0 0 110.169 28c2.823 0 5.376-1.116 7.228-2.927 1.847-1.812 2.991-4.31 2.991-7.073 0-2.762-1.14-5.261-2.991-7.073A10.317 10.317 0 0 0 110.169 8zm6.015 15.886a8.58 8.58 0 0 1-6.015 2.436 8.57 8.57 0 0 1-6.015-2.436 8.214 8.214 0 0 1-2.49-5.886c0-2.298.948-4.378 2.49-5.886a8.58 8.58 0 0 1 6.015-2.436c2.348 0 4.473.928 6.015 2.436a8.215 8.215 0 0 1 2.49 5.886 8.204 8.204 0 0 1-2.49 5.886zM141.998 8.33l.001-.002h-1.756l-7.57 17.312-7.569-17.312h-1.756l.001.002v19.344h1.75v-15.34l6.688 15.296h1.773l6.689-15.299v15.343H142V8.33h-.002z" fill="#333" fill-rule="nonzero"/></g></svg>